<svg xmlns="http://www.w3.org/2000/svg" viewBox="0 0 12.22 17"><defs><style>.cls-1{fill:none;}.cls-2{fill:#3a55b4;}</style></defs><g id="Layer_2" data-name="Layer 2"><g id="Layer_3" data-name="Layer 3"><path class="cls-1" d="M9,4.66A18.24,18.24,0,0,1,11.14,4V.35H7.64L6.56,2.58H9Z"/><path class="cls-2" d="M8.63,5.11V2.9H6.05L7.44,0h4V4.29l-.25.06A17.74,17.74,0,0,0,9.05,5ZM7.07,2.26h2.2v2c.51-.17,1-.31,1.55-.43V.67h-3Z"/><path class="cls-1" d="M3.73,7.54A16.66,16.66,0,0,1,5.92,6.05V.32H2.42L1.34,2.54H3.73Z"/><path class="cls-2" d="M3.41,8.21V2.86H.83L2.22,0h4V6.23l-.16.1A16.59,16.59,0,0,0,3.93,7.79Zm-1.56-6h2.2V6.89a15.93,15.93,0,0,1,1.55-1V.64h-3Z"/><path class="cls-1" d="M12.16,5.66A15.81,15.81,0,0,0,2.21,11.4a.11.11,0,0,0,.12.17,10,10,0,0,1,2.1-.42.13.13,0,0,1,.13.19c-.48.91-.9,1.68-1.27,2.3a19.41,19.41,0,0,1-1.38,2.14,3.67,3.67,0,0,1-.23.29l-.18.2a1.22,1.22,0,0,1-.16.14c-.06,0-.12-.09-.16-.19a1.06,1.06,0,0,1,0-.22,3.28,3.28,0,0,1,0-.34,39.11,39.11,0,0,1,1.19-5.9c.07-.27.11-.44.13-.53q.21-.88-.09-1.08C2.2,8,2,8.1,1.69,8.32a3.61,3.61,0,0,0-.51.52,4.89,4.89,0,0,0-.49.73,2.92,2.92,0,0,0-.32.79,1.26,1.26,0,0,0,0,.72.84.84,0,0,0,.32.41,1.26,1.26,0,0,0,.71.17.07.07,0,0,0,.08,0,.12.12,0,0,0,0-.16.09.09,0,0,0-.08,0C1,11.42.69,11.28.6,11a1.1,1.1,0,0,1,0-.6,2.94,2.94,0,0,1,.29-.72A5.51,5.51,0,0,1,1.33,9a3.47,3.47,0,0,1,.5-.51c.2-.15.33-.21.4-.16l0,0s0,0,0,.07a.59.59,0,0,1,0,.14,2.27,2.27,0,0,1,0,.24c0,.11,0,.22-.07.35s-.06.27-.13.53a37.76,37.76,0,0,0-1.19,6c0,.6.13,1,.38,1s.36-.15.56-.43.42-.51.7-.93.6-.94,1-1.55S4.42,12.12,5,11C8.27,6.43,12.16,5.66,12.16,5.66Z"/><path class="cls-2" d="M1.32,17h-.1c-.31-.07-.65-.36-.64-1.34A22.52,22.52,0,0,1,1.22,12a1.33,1.33,0,0,1-.71-.22,1.14,1.14,0,0,1-.44-.56,1.65,1.65,0,0,1,0-.91,3.52,3.52,0,0,1,.35-.87,5.45,5.45,0,0,1,.52-.77,3.8,3.8,0,0,1,.56-.57c.5-.39.85-.32,1-.19.44.29.35,1,.23,1.42l-.13.53c-.06.27-.13.53-.19.78a16.32,16.32,0,0,1,9.67-5.26l.11.63s-3.81.8-7,5.22c-.54,1.05-1,2-1.48,2.73s-.68,1.14-1,1.56-.37.5-.51.69a3.08,3.08,0,0,0-.2.26C1.83,16.81,1.57,17,1.32,17Zm.82-5.13a23.58,23.58,0,0,0-.68,3.8v.17l.2-.25A21.6,21.6,0,0,0,3,13.48c.31-.55.68-1.21,1.09-2a8.4,8.4,0,0,0-1.68.37A.48.48,0,0,1,2.14,11.87ZM2,8.82a2.91,2.91,0,0,0-.37.4,4.31,4.31,0,0,0-.42.63,2.36,2.36,0,0,0-.25.63.77.77,0,0,0,0,.42c0,.13.21.2.5.21h0l.36-1.49.13-.52C1.93,9,2,8.9,2,8.82ZM8.54,7a15.43,15.43,0,0,0-5.66,4.05,11.05,11.05,0,0,1,1.52-.25.41.41,0,0,1,.29.07s0,0,0,0A15.68,15.68,0,0,1,8.54,7ZM2.19,8.46,2,8.56l.16-.08v0Z"/></g></g></svg>