<?xml version="1.0" encoding="utf-8"?>
<!-- Generator: Adobe Illustrator 22.0.1, SVG Export Plug-In . SVG Version: 6.00 Build 0)  -->
<svg version="1.1" id="Layer_1" xmlns="http://www.w3.org/2000/svg" xmlns:xlink="http://www.w3.org/1999/xlink" x="0px" y="0px"
	 viewBox="0 0 12.2 17" style="enable-background:new 0 0 12.2 17;" xml:space="preserve">
<style type="text/css">
	.st0{fill:#2563EB;}
</style>
<g id="Layer_2_1_">
	<g id="Layer_3">
		<path class="st0" d="M9,4.7c0.7-0.3,1.4-0.5,2.1-0.7V0.3H7.6L6.6,2.6H9V4.7z"/>
		<path class="st0" d="M8.6,5.1V2.9H6.1L7.4,0h4v4.3l-0.3,0.1C10.5,4.5,9.7,4.7,9.1,5L8.6,5.1z M7.1,2.3h2.2v2
			c0.5-0.2,1-0.3,1.6-0.4V0.7h-3L7.1,2.3z"/>
		<path class="st0" d="M3.7,7.5C4.4,7,5.2,6.5,5.9,6.1V0.3H2.4L1.3,2.5h2.4V7.5z"/>
		<path class="st0" d="M3.4,8.2V2.9H0.8L2.2,0h4v6.2L6.1,6.3C5.3,6.8,4.6,7.2,3.9,7.8L3.4,8.2z M1.9,2.2h2.2v4.7
			c0.5-0.4,1-0.7,1.6-1V0.6h-3L1.9,2.2z"/>
		<path class="st0" d="M12.2,5.7c-3.9,0.6-7.5,2.6-9.9,5.7c0,0,0,0.1,0,0.2c0,0,0.1,0,0.1,0c0.7-0.2,1.4-0.4,2.1-0.4
			c0.1,0,0.1,0,0.1,0.1c0,0,0,0.1,0,0.1c-0.5,0.9-0.9,1.7-1.3,2.3c-0.4,0.7-0.9,1.5-1.4,2.1c-0.1,0.1-0.1,0.2-0.2,0.3l-0.2,0.2
			c0,0.1-0.1,0.1-0.2,0.1c-0.1,0-0.1-0.1-0.2-0.2c0-0.1,0-0.1,0-0.2c0-0.1,0-0.2,0-0.3c0.2-2,0.6-4,1.2-5.9c0.1-0.3,0.1-0.4,0.1-0.5
			c0.1-0.6,0.1-0.9-0.1-1.1C2.2,8,2,8.1,1.7,8.3C1.5,8.5,1.3,8.6,1.2,8.8C1,9.1,0.8,9.3,0.7,9.6c-0.1,0.2-0.3,0.5-0.3,0.8
			c-0.1,0.2-0.1,0.5,0,0.7c0.1,0.2,0.2,0.3,0.3,0.4c0.2,0.1,0.5,0.2,0.7,0.2c0,0,0.1,0,0.1,0c0,0,0-0.1,0-0.2c0,0-0.1,0-0.1,0
			C1,11.4,0.7,11.3,0.6,11c-0.1-0.2-0.1-0.4,0-0.6c0.1-0.3,0.2-0.5,0.3-0.7C1,9.4,1.2,9.2,1.3,9c0.1-0.2,0.3-0.4,0.5-0.5
			C2,8.3,2.2,8.3,2.2,8.3l0,0c0,0,0,0,0,0.1c0,0,0,0.1,0,0.1c0,0.1,0,0.2,0,0.2c0,0.1,0,0.2-0.1,0.4S2.1,9.4,2,9.7c-0.6,2-1,4-1.2,6
			c0,0.6,0.1,1,0.4,1s0.4-0.1,0.6-0.4s0.4-0.5,0.7-0.9s0.6-0.9,1-1.6S4.4,12.1,5,11C8.3,6.4,12.2,5.7,12.2,5.7z"/>
		<path class="st0" d="M1.3,17H1.2c-0.3-0.1-0.6-0.4-0.6-1.3c0.1-1.2,0.3-2.5,0.6-3.7c-0.3,0-0.5-0.1-0.7-0.2
			c-0.2-0.1-0.4-0.3-0.4-0.6c-0.1-0.3-0.1-0.6,0-0.9C0.1,10,0.3,9.7,0.4,9.4c0.2-0.3,0.3-0.5,0.5-0.8c0.2-0.2,0.4-0.4,0.6-0.6
			c0.5-0.4,0.8-0.3,1-0.2c0.4,0.3,0.3,1,0.2,1.4L2.6,9.9c-0.1,0.3-0.1,0.5-0.2,0.8C4.9,7.8,8.3,6,12.1,5.4L12.2,6c0,0-3.8,0.8-7,5.2
			c-0.5,1.1-1,2-1.5,2.7s-0.7,1.1-1,1.6S2.3,16,2.2,16.2c-0.1,0.1-0.1,0.2-0.2,0.3C1.8,16.8,1.6,17,1.3,17z M2.1,11.9
			c-0.3,1.2-0.6,2.5-0.7,3.8v0.2l0.2-0.3c0.5-0.7,0.9-1.4,1.3-2.1c0.3-0.6,0.7-1.2,1.1-2c-0.6,0.1-1.1,0.2-1.7,0.4
			C2.3,11.9,2.2,11.9,2.1,11.9z M2,8.8C1.9,8.9,1.7,9.1,1.6,9.2C1.5,9.4,1.3,9.6,1.2,9.8C1.1,10,1,10.3,1,10.5c0,0.1,0,0.3,0,0.4
			c0,0.1,0.2,0.2,0.5,0.2l0,0l0.4-1.5L2,9.1C1.9,9,2,8.9,2,8.8z M8.5,7c-2.2,0.9-4.1,2.3-5.7,4.1c0.5-0.1,1-0.2,1.5-0.3
			c0.1,0,0.2,0,0.3,0.1l0,0C5.7,9.4,7,8.1,8.5,7z M2.2,8.5L2,8.6L2.2,8.5L2.2,8.5L2.2,8.5z"/>
	</g>
</g>
</svg>
